<svg width="18" height="15" viewBox="0 0 18 15" fill="none" xmlns="http://www.w3.org/2000/svg">
<path d="M2.79016 2.03196L2.80884 2.10814L4.61117 9.45807L2.79016 2.03196ZM2.79016 2.03196H2.71172M2.79016 2.03196H2.71172M2.71172 2.03196H1.18687C1.03184 2.03196 0.882767 1.96922 0.772556 1.8569C0.662282 1.74451 0.6 1.5917 0.6 1.43196C0.6 1.27223 0.662282 1.11941 0.772556 1.00703C0.882767 0.894708 1.03184 0.831963 1.18687 0.831963L2.71172 0.831965L2.71238 0.831961C2.99459 0.830086 3.26948 0.924764 3.49302 1.10118C3.7166 1.27763 3.87594 1.52571 3.94509 1.80592L5.74671 9.15575L5.76539 9.23195H5.84384H14.4091H14.4862L14.5058 9.15732L16.1388 2.93196H17.3698M2.71172 2.03196L17.3698 2.93196M17.3698 2.93196L15.623 9.47712C15.623 9.47713 15.623 9.47715 15.623 9.47716C15.4713 10.0445 14.9825 10.4319 14.4098 10.4319H13.5505H7.36869H5.84453C5.26099 10.4319 4.75345 10.0367 4.61118 9.45813L17.3698 2.93196ZM11.5899 12.6319C11.5899 11.5339 12.4776 10.6319 13.5505 10.6319C14.6234 10.6319 15.5111 11.5339 15.5111 12.6319C15.5111 13.73 14.6234 14.6319 13.5505 14.6319C12.4776 14.6319 11.5899 13.73 11.5899 12.6319ZM5.40808 12.6319C5.40808 11.5339 6.29579 10.6319 7.36869 10.6319C8.44158 10.6319 9.32929 11.5339 9.32929 12.6319C9.32929 13.73 8.44158 14.6319 7.36869 14.6319C6.29579 14.6319 5.40808 13.73 5.40808 12.6319ZM9.42929 4.33196H9.52929V4.23196V0.831963H10.703V4.23196V4.33196H10.803H12.6254L10.1162 6.88917L7.60691 4.33196H9.42929ZM8.15556 12.6319C8.15556 12.1837 7.81309 11.8319 7.36869 11.8319C6.92429 11.8319 6.58182 12.1837 6.58182 12.6319C6.58182 13.0802 6.92429 13.4319 7.36869 13.4319C7.81309 13.4319 8.15556 13.0802 8.15556 12.6319ZM14.3374 12.6319C14.3374 12.1837 13.9949 11.8319 13.5505 11.8319C13.1061 11.8319 12.7636 12.1837 12.7636 12.6319C12.7636 13.0802 13.1061 13.4319 13.5505 13.4319C13.9949 13.4319 14.3374 13.0802 14.3374 12.6319Z" fill="white" stroke="#202122" stroke-width="0.2"/>
</svg>
