<svg width="17" height="21" viewBox="0 0 17 21" fill="none" xmlns="http://www.w3.org/2000/svg">
<path d="M14.6539 5.84192H1.54932C1.03236 5.84192 0.613281 6.261 0.613281 6.77796V18.9465C0.613281 19.4634 1.03236 19.8825 1.54932 19.8825H14.6539C15.1708 19.8825 15.5899 19.4634 15.5899 18.9465V6.77796C15.5899 6.261 15.1708 5.84192 14.6539 5.84192Z" stroke="#8E8E8E" stroke-width="1.18237" stroke-linecap="round" stroke-linejoin="round"/>
<path d="M4.82617 7.7139V4.43776C4.82617 4.00753 4.91091 3.58152 5.07555 3.18404C5.24019 2.78656 5.48151 2.4254 5.78573 2.12118C6.08995 1.81696 6.45111 1.57564 6.84859 1.411C7.24607 1.24636 7.67208 1.16162 8.10231 1.16162C8.53254 1.16162 8.95856 1.24636 9.35604 1.411C9.75351 1.57564 10.1147 1.81696 10.4189 2.12118C10.7231 2.4254 10.9644 2.78656 11.1291 3.18404C11.2937 3.58152 11.3785 4.00753 11.3785 4.43776V7.7139" stroke="#8E8E8E" stroke-width="1.18237" stroke-linecap="round" stroke-linejoin="round"/>
</svg>
