<svg width="29" height="29" viewBox="0 0 29 29" fill="none" xmlns="http://www.w3.org/2000/svg">
<ellipse cx="14.4437" cy="14.2319" rx="14.0814" ry="14" fill="#202122"/>
<path d="M15.8137 10.0098C16.9797 10.0098 17.9249 9.06464 17.9249 7.89871C17.9249 6.73277 16.9797 5.7876 15.8137 5.7876C14.6478 5.7876 13.7026 6.73277 13.7026 7.89871C13.7026 9.06464 14.6478 10.0098 15.8137 10.0098Z" fill="#F8F8F8"/>
<path d="M17.9723 18.5756C17.914 18.5364 17.8484 18.5092 17.7795 18.4956C17.7105 18.4821 17.6395 18.4825 17.5707 18.4967C17.5019 18.511 17.4366 18.5388 17.3787 18.5787C17.3207 18.6185 17.2714 18.6695 17.2334 18.7287C16.7232 19.4843 16.0982 20.1556 15.3809 20.7184C15.2068 20.8503 14.5576 21.3517 14.2832 21.2462C14.0932 21.1881 14.204 20.8134 14.2409 20.6551L14.5207 19.8264C14.6368 19.4887 16.6582 13.4931 16.8798 12.807C17.207 11.8042 17.0645 10.8173 15.5709 11.0548C15.1645 11.097 11.0426 11.6301 10.9687 11.6353C10.8994 11.6398 10.8317 11.658 10.7693 11.6886C10.707 11.7193 10.6514 11.762 10.6056 11.8142C10.5597 11.8664 10.5246 11.9271 10.5023 11.9928C10.4799 12.0586 10.4707 12.1281 10.4752 12.1974C10.4797 12.2667 10.4979 12.3345 10.5285 12.3968C10.5592 12.4591 10.6019 12.5147 10.6541 12.5606C10.7063 12.6064 10.767 12.6415 10.8327 12.6638C10.8985 12.6862 10.968 12.6954 11.0373 12.6909C11.0373 12.6909 12.6207 12.4851 12.7948 12.4692C12.884 12.4605 12.9739 12.4778 13.0535 12.519C13.1331 12.5602 13.199 12.6236 13.2434 12.7015C13.3391 12.9971 13.326 13.3171 13.2065 13.6039C13.0693 14.1317 10.9001 20.2434 10.8315 20.597C10.7579 20.8929 10.7783 21.2044 10.8899 21.4882C11.0016 21.7719 11.1988 22.0139 11.4543 22.1803C11.9338 22.4999 12.5047 22.6538 13.0798 22.6184C13.639 22.6116 14.1921 22.5006 14.7107 22.2912C16.0248 21.7634 17.397 20.3595 18.1201 19.2564C18.1824 19.1444 18.2017 19.0135 18.1745 18.8882C18.1473 18.7629 18.0754 18.6518 17.9723 18.5756Z" fill="#F8F8F8"/>
</svg>
